<?xml version="1.0" encoding="UTF-8" standalone="no"?>
<!-- Created with Inkscape (http://www.inkscape.org/) -->

<svg
   xmlns:dc="http://purl.org/dc/elements/1.1/"
   xmlns:cc="http://creativecommons.org/ns#"
   xmlns:rdf="http://www.w3.org/1999/02/22-rdf-syntax-ns#"
   xmlns:svg="http://www.w3.org/2000/svg"
   xmlns="http://www.w3.org/2000/svg"
   xmlns:sodipodi="http://sodipodi.sourceforge.net/DTD/sodipodi-0.dtd"
   xmlns:inkscape="http://www.inkscape.org/namespaces/inkscape"
   width="744.09448819"
   height="1052.3622047"
   id="svg2"
   version="1.1"
   inkscape:version="0.48.5 r10040"
   sodipodi:docname="New document 1">
  <defs
     id="defs4" />
  <sodipodi:namedview
     id="base"
     pagecolor="#ffffff"
     bordercolor="#666666"
     borderopacity="1.0"
     inkscape:pageopacity="0.0"
     inkscape:pageshadow="2"
     inkscape:zoom="0.35"
     inkscape:cx="699.17604"
     inkscape:cy="314.47844"
     inkscape:document-units="px"
     inkscape:current-layer="layer1"
     showgrid="false"
     inkscape:window-width="1436"
     inkscape:window-height="856"
     inkscape:window-x="0"
     inkscape:window-y="0"
     inkscape:window-maximized="1" />
  <metadata
     id="metadata7">
    <rdf:RDF>
      <cc:Work
         rdf:about="">
        <dc:format>image/svg+xml</dc:format>
        <dc:type
           rdf:resource="http://purl.org/dc/dcmitype/StillImage" />
        <dc:title></dc:title>
      </cc:Work>
    </rdf:RDF>
  </metadata>
  <g
     inkscape:label="Layer 1"
     inkscape:groupmode="layer"
     id="layer1">
    <path
       style="fill:none;stroke:#000000;stroke-width:1px;stroke-linecap:butt;stroke-linejoin:miter;stroke-opacity:1"
       d="m 197.14286,329.50504 c -2.85715,377.14286 -2.85715,374.28571 -2.85715,374.28571 l 214.28572,74.28572 100,-94.28572 L 505.71429,312.36218 460,249.50504 460,200.93361 262.85714,203.79075 260,246.6479 l -20,20 -68.57143,-80 -20,0 -85.714284,57.14285 14.285714,20 77.14286,-54.28571 68.57143,77.14286 z"
       id="path2991"
       inkscape:connector-curvature="0" />
    <path
       style="fill:#ff7f2a;stroke:none"
       d="m 302.14286,739.11475 -105.71429,-36.75911 0.87092,-184.85389 0.87092,-184.85385 14.4083,-22.01949 c 7.92457,-12.11072 13.96122,-23.32575 13.4148,-24.9223 -1.58025,-4.61716 -66.29306,-77.34393 -68.82119,-77.34393 -1.25481,0 -19.02999,11.72694 -39.50038,26.05986 -20.470391,14.33292 -37.586452,25.58292 -38.035687,25 -0.449234,-0.58292 -2.929426,-4.19245 -5.511537,-8.02119 l -4.694748,-6.96132 42.070732,-28.03507 c 30.2299,-20.14459 44.48316,-28.0135 50.64216,-27.95842 7.46325,0.0667 12.95502,5.23778 42.47713,39.99639 18.64814,21.95587 34.78879,39.91975 35.8681,39.91975 1.07931,0 6.37062,-4.54814 11.75846,-10.10698 9.07473,-9.36275 9.87535,-11.677 10.87276,-31.42857 l 1.07669,-21.32159 32.08312,0 c 17.64572,0 61.21948,-0.84795 96.83057,-1.88433 l 64.74745,-1.88433 0,24.32741 0,24.32742 22.65697,31.28266 22.65698,31.28266 0.91445,185.17348 0.91446,185.17346 -48.57143,46.2852 -48.57143,46.28523 -105.71428,-36.75915 0,0 z"
       id="path2993"
       inkscape:connector-curvature="0" />
  </g>
</svg>
