<?xml version="1.0" encoding="UTF-8" standalone="no"?>
<!-- Created with Inkscape (http://www.inkscape.org/) -->

<svg
   xmlns:osb="http://www.openswatchbook.org/uri/2009/osb"
   xmlns:dc="http://purl.org/dc/elements/1.1/"
   xmlns:cc="http://creativecommons.org/ns#"
   xmlns:rdf="http://www.w3.org/1999/02/22-rdf-syntax-ns#"
   xmlns:svg="http://www.w3.org/2000/svg"
   xmlns="http://www.w3.org/2000/svg"
   xmlns:xlink="http://www.w3.org/1999/xlink"
   xmlns:sodipodi="http://sodipodi.sourceforge.net/DTD/sodipodi-0.dtd"
   xmlns:inkscape="http://www.inkscape.org/namespaces/inkscape"
   width="260"
   height="260"
   id="svg2"
   version="1.1"
   inkscape:version="0.48.5 r10040"
   sodipodi:docname="orangejuice.svg">
  <defs
     id="defs4">
    <linearGradient
       inkscape:collect="always"
       id="linearGradient8208">
      <stop
         style="stop-color:#00fff4;stop-opacity:1;"
         offset="0"
         id="stop8210" />
      <stop
         style="stop-color:#00fff4;stop-opacity:0;"
         offset="1"
         id="stop8212" />
    </linearGradient>
    <linearGradient
       inkscape:collect="always"
       id="linearGradient8180">
      <stop
         style="stop-color:#d45500;stop-opacity:1;"
         offset="0"
         id="stop8182" />
      <stop
         style="stop-color:#ff7f2a;stop-opacity:1"
         offset="1"
         id="stop8184" />
    </linearGradient>
    <linearGradient
       inkscape:collect="always"
       id="linearGradient8166">
      <stop
         style="stop-color:#ff9955;stop-opacity:1;"
         offset="0"
         id="stop8168" />
      <stop
         style="stop-color:#ffccaa;stop-opacity:1"
         offset="1"
         id="stop8170" />
    </linearGradient>
    <pattern
       inkscape:collect="always"
       xlink:href="#pattern8099"
       id="pattern8104"
       patternTransform="matrix(0.568542,0,0,0.58815369,8.2458496e-7,2.8491211e-7)" />
    <pattern
       inkscape:collect="always"
       xlink:href="#pattern8083"
       id="pattern8099"
       patternTransform="matrix(0.568542,0,0,0.58815369,-24.64211,20.606602)" />
    <pattern
       inkscape:collect="always"
       xlink:href="#pattern8068"
       id="pattern8086"
       patternTransform="matrix(0.25753787,0,0,0.25753787,9.9438476e-7,0)" />
    <pattern
       inkscape:collect="always"
       xlink:href="#pattern8063"
       id="pattern8068"
       patternTransform="matrix(0.25753787,0,0,0.25753787,-35.753787,10)" />
    <linearGradient
       inkscape:collect="always"
       id="linearGradient8035">
      <stop
         style="stop-color:#00ff00;stop-opacity:1;"
         offset="0"
         id="stop8037" />
      <stop
         style="stop-color:#008000;stop-opacity:1"
         offset="1"
         id="stop8039" />
    </linearGradient>
    <linearGradient
       id="linearGradient7936"
       osb:paint="solid">
      <stop
         style="stop-color:#d03636;stop-opacity:1;"
         offset="0"
         id="stop7938" />
    </linearGradient>
    <linearGradient
       inkscape:collect="always"
       id="linearGradient5211">
      <stop
         style="stop-color:#ff9955;stop-opacity:1;"
         offset="0"
         id="stop5213" />
      <stop
         style="stop-color:#ffccaa;stop-opacity:1"
         offset="1"
         id="stop5215" />
    </linearGradient>
    <marker
       inkscape:stockid="Arrow1Lstart"
       orient="auto"
       refY="0.0"
       refX="0.0"
       id="Arrow1Lstart"
       style="overflow:visible">
      <path
         id="path4084"
         d="M 0.0,0.0 L 5.0,-5.0 L -12.5,0.0 L 5.0,5.0 L 0.0,0.0 z "
         style="fill-rule:evenodd;stroke:#000000;stroke-width:1.0pt"
         transform="scale(0.8) translate(12.5,0)" />
    </marker>
    <marker
       inkscape:stockid="CurveIn"
       orient="auto"
       refY="0.0"
       refX="0.0"
       id="CurveIn"
       style="overflow:visible">
      <path
         id="path4268"
         d="M 4.6254930,-5.0456926 C 1.8654930,-5.0456926 -0.37450702,-2.8056926 -0.37450702,-0.045692580 C -0.37450702,2.7143074 1.8654930,4.9543074 4.6254930,4.9543074"
         style="fill-rule:evenodd;stroke:#000000;stroke-width:1.0pt;fill:none"
         transform="scale(0.6)" />
    </marker>
    <inkscape:perspective
       sodipodi:type="inkscape:persp3d"
       inkscape:vp_x="-66.751162 : 121.41022 : 1"
       inkscape:vp_y="-1.1129835 : 831.12304 : 0"
       inkscape:vp_z="320.42157 : 132.63264 : 1"
       inkscape:persp3d-origin="103.73414 : 104.07846 : 1"
       id="perspective2986" />
    <linearGradient
       inkscape:collect="always"
       xlink:href="#linearGradient5211"
       id="linearGradient5217"
       x1="175"
       y1="988.07648"
       x2="174.28572"
       y2="843.07648"
       gradientUnits="userSpaceOnUse" />
    <linearGradient
       inkscape:collect="always"
       xlink:href="#linearGradient8035"
       id="linearGradient8041"
       x1="104.04572"
       y1="121.10403"
       x2="23.233509"
       y2="24.129381"
       gradientUnits="userSpaceOnUse"
       gradientTransform="matrix(0.35275858,-0.1279381,0.14314043,0.37118061,21.638428,78.111184)" />
    <pattern
       patternUnits="userSpaceOnUse"
       width="100"
       height="100"
       id="pattern8063">
      <path
         d="m 100,0 0,50 -50,50 -50,0 z M 0,0 50,0 0,50 z"
         style="fill:#00fff8;fill-opacity:1;stroke:none"
         id="path8060"
         inkscape:connector-curvature="0" />
    </pattern>
    <pattern
       patternUnits="userSpaceOnUse"
       width="25.753788"
       height="25.753786"
       patternTransform="translate(-35.753788,10)"
       id="pattern8083">
      <rect
         id="rect8066"
         y="0"
         x="0"
         height="25.753786"
         width="25.753788"
         style="fill:url(#pattern8086);stroke:none" />
    </pattern>
    <pattern
       patternUnits="userSpaceOnUse"
       width="14.64211"
       height="15.147183"
       patternTransform="translate(-24.642111,20.606602)"
       id="pattern8101">
      <rect
         id="rect8088"
         y="0"
         x="0"
         height="15.147183"
         width="14.64211"
         style="fill:url(#pattern8104);stroke:none" />
    </pattern>
    <linearGradient
       inkscape:collect="always"
       xlink:href="#linearGradient8166"
       id="linearGradient8172"
       x1="154.55334"
       y1="237.77664"
       x2="154.55334"
       y2="82.21315"
       gradientUnits="userSpaceOnUse"
       gradientTransform="translate(-6.5449648,794.43325)" />
    <linearGradient
       inkscape:collect="always"
       xlink:href="#linearGradient8180"
       id="linearGradient8186"
       x1="-11.111678"
       y1="1002.8647"
       x2="-9.5964489"
       y2="859.42303"
       gradientUnits="userSpaceOnUse"
       gradientTransform="translate(92.955061,17.728432)" />
    <linearGradient
       inkscape:collect="always"
       xlink:href="#linearGradient8208"
       id="linearGradient8214"
       x1="113.64216"
       y1="114.03296"
       x2="229.30463"
       y2="27.664915"
       gradientUnits="userSpaceOnUse"
       gradientTransform="translate(6.5870182,-3.9898475)" />
  </defs>
  <sodipodi:namedview
     id="base"
     pagecolor="#ffffff"
     bordercolor="#666666"
     borderopacity="1.0"
     inkscape:pageopacity="0.0"
     inkscape:pageshadow="2"
     inkscape:zoom="1.979899"
     inkscape:cx="90.314443"
     inkscape:cy="107.57289"
     inkscape:document-units="px"
     inkscape:current-layer="layer2"
     showgrid="false"
     inkscape:snap-bbox="false"
     inkscape:snap-global="true"
     inkscape:window-width="1436"
     inkscape:window-height="855"
     inkscape:window-x="0"
     inkscape:window-y="0"
     inkscape:window-maximized="1"
     showguides="true"
     inkscape:snap-nodes="false"
     inkscape:guide-bbox="true">
    <inkscape:grid
       type="xygrid"
       id="grid3030"
       empspacing="5"
       visible="true"
       enabled="true"
       snapvisiblegridlinesonly="true" />
  </sodipodi:namedview>
  <metadata
     id="metadata7">
    <rdf:RDF>
      <cc:Work
         rdf:about="">
        <dc:format>image/svg+xml</dc:format>
        <dc:type
           rdf:resource="http://purl.org/dc/dcmitype/StillImage" />
        <dc:title />
      </cc:Work>
    </rdf:RDF>
  </metadata>
  <g
     inkscape:groupmode="layer"
     id="layer7"
     inkscape:label="straw"
     style="display:inline"
     sodipodi:insensitive="true">
    <path
       style="fill:url(#linearGradient8214);fill-opacity:1;stroke:none"
       d="m 124.26978,116.10402 c 0,0 45.4019,-86.971762 50.00255,-89.398495 4.03894,-2.130445 55.45455,35.283994 56.56855,38.385797 1.2258,3.413114 -1.73638,7.301094 -4.04062,10.101525 -2.16601,2.632434 -5.18356,5.349073 -8.58629,5.555839 -2.28978,0.139138 -34.41512,-29.374055 -38.89087,-27.779195 -5.22511,1.861885 -38.89088,69.700519 -38.89088,69.700519 z"
       id="path8190"
       inkscape:connector-curvature="0"
       sodipodi:nodetypes="cssasscc" />
    <path
       style="fill:#ffffff;fill-opacity:1;stroke:none"
       d="m 181.73554,34.066301 c 0,0 10.48605,4.395898 15.15229,7.576144 3.74335,2.551253 9.05406,6.180647 10.10152,9.091373 0.29068,0.807755 -0.24651,1.514283 -0.75762,2.020306 -0.70018,0.693213 -1.76589,1.166857 -2.77791,1.010152 -2.05691,-0.318499 -5.52696,-6.26017 -8.5863,-9.091373 -4.12976,-3.821794 -13.13198,-10.606602 -13.13198,-10.606602 z"
       id="path8216"
       inkscape:connector-curvature="0"
       sodipodi:nodetypes="casasac" />
  </g>
  <g
     inkscape:label="box"
     inkscape:groupmode="layer"
     id="layer1"
     transform="translate(0,-792.36218)"
     style="display:inline"
     sodipodi:insensitive="true">
    <path
       id="path8134"
       style="fill:url(#linearGradient8172);fill-opacity:1;stroke:none"
       d="m 118.20887,884.72762 c 0,0 2.07815,50.49872 2.0203,75.76145 -0.0494,21.56038 -2.0203,64.64973 -2.0203,64.64973 l 0,0 m 0.24616,-140.70555 c -8.92758,0.0557 -61.010148,28.98985 -64.999995,35 -3.910833,5.89113 -3.370522,74.27618 0,79.99995 2.310963,3.9245 56.908335,25.6164 64.999995,25 7.48336,-0.57 45.79507,-25.3691 50,-29.99995 4.57444,-5.03776 3.97599,-78.6834 0,-85 -3.89476,-6.18756 -43.48408,-25.04067 -50,-25 z"
       inkscape:connector-curvature="0" />
    <path
       style="fill:url(#linearGradient8186);fill-opacity:1;fill-rule:nonzero;stroke:none"
       d="m 108.88448,1021.7352 c -8.14169,-2.3874 -16.26095,-5.2921 -28.284262,-10.119 -19.729869,-7.9207 -25.972191,-11.0142 -27.139435,-13.4496 -3.144793,-6.56138 -3.123248,-71.1241 0.02593,-77.70751 1.11911,-2.33952 9.695062,-8.16346 24.597767,-16.70438 13.636521,-7.81525 32.84301,-17.07333 37.24705,-17.95414 l 1.50686,-0.30137 0.32084,6.23759 c 2.0181,39.23391 2.0173,96.83191 -0.002,127.07711 -0.37212,5.5744 0.14827,5.3906 -8.27298,2.9213 l 2.5e-4,0 z"
       id="path8163"
       inkscape:connector-curvature="0" />
  </g>
  <g
     inkscape:groupmode="layer"
     id="layer2"
     inkscape:label="speakers">
    <path
       sodipodi:type="arc"
       style="fill:#ffffff;fill-opacity:1;stroke:none"
       id="path3860"
       sodipodi:cx="149.50258"
       sodipodi:cy="188.27917"
       sodipodi:rx="15.657364"
       sodipodi:ry="21.213203"
       d="m 165.15994,188.27917 a 15.657364,21.213203 0 1 1 -31.31473,0 15.657364,21.213203 0 1 1 31.31473,0 z"
       transform="matrix(0.99599254,0.09507598,-0.12707254,0.99189343,21.493783,-15.718264)" />
    <use
       x="0"
       y="0"
       xlink:href="#path3860"
       id="use3862"
       transform="matrix(0.71033648,0,0,0.7260125,40.407324,3.5312019)"
       width="260"
       height="260" />
    <path
       transform="matrix(0.32611189,0.03260349,-0.0416066,0.34014049,99.99537,70.623638)"
       d="m 165.15994,188.27917 a 15.657364,21.213203 0 1 1 -31.31473,0 15.657364,21.213203 0 1 1 31.31473,0 z"
       sodipodi:ry="21.213203"
       sodipodi:rx="15.657364"
       sodipodi:cy="188.27917"
       sodipodi:cx="149.50258"
       id="use3864"
       style="fill:#ffccaa;fill-opacity:1;stroke:none"
       sodipodi:type="arc" />
    <path
       sodipodi:type="arc"
       style="fill:#ffb380;fill-opacity:1;stroke:none"
       id="use3868"
       sodipodi:cx="149.50258"
       sodipodi:cy="188.27917"
       sodipodi:rx="15.657364"
       sodipodi:ry="21.213203"
       d="m 165.15994,188.27917 a 15.657364,21.213203 0 1 1 -31.31473,0 15.657364,21.213203 0 1 1 31.31473,0 z"
       transform="matrix(0.32611189,0.03260349,-0.0416066,0.34014049,99.490294,117.09065)" />
  </g>
  <g
     inkscape:groupmode="layer"
     id="layer6"
     inkscape:label="leaf"
     style="display:inline"
     sodipodi:insensitive="true">
    <path
       style="fill:url(#linearGradient8041);fill-opacity:1;stroke:none"
       d="m 39.050479,99.85227 c 0,0 6.830031,14.77623 13.510965,17.26484 8.080821,3.01005 24.427354,-5.6961 24.427354,-5.6961 0,0 -1.408151,-14.25203 -4.621097,-20.533316 C 69.045905,84.393619 57.916739,74.524848 57.916739,74.524848 l -2.960016,3.070905 c 0,0 6.403422,7.847208 8.862143,12.250682 2.65786,4.760125 6.243935,15.097035 6.243935,15.097035 0,0 -6.611401,-10.056344 -11.7454,-11.331221 -6.726323,-1.670285 -19.266922,6.240021 -19.266922,6.240021 z"
       id="path8033"
       inkscape:connector-curvature="0"
       sodipodi:nodetypes="cacaccacac" />
  </g>
</svg>
