<?xml version="1.0" encoding="UTF-8" standalone="no"?>
<!-- Created with Inkscape (http://www.inkscape.org/) -->

<svg
   xmlns:dc="http://purl.org/dc/elements/1.1/"
   xmlns:cc="http://creativecommons.org/ns#"
   xmlns:rdf="http://www.w3.org/1999/02/22-rdf-syntax-ns#"
   xmlns:svg="http://www.w3.org/2000/svg"
   xmlns="http://www.w3.org/2000/svg"
   xmlns:sodipodi="http://sodipodi.sourceforge.net/DTD/sodipodi-0.dtd"
   xmlns:inkscape="http://www.inkscape.org/namespaces/inkscape"
   width="260"
   height="260"
   id="svg2"
   version="1.1"
   inkscape:version="0.48.5 r10040"
   sodipodi:docname="juicebox.svg">
  <defs
     id="defs4" />
  <sodipodi:namedview
     id="base"
     pagecolor="#ffffff"
     bordercolor="#666666"
     borderopacity="1.0"
     inkscape:pageopacity="0.0"
     inkscape:pageshadow="2"
     inkscape:zoom="0.98994949"
     inkscape:cx="265.28107"
     inkscape:cy="90.576128"
     inkscape:document-units="px"
     inkscape:current-layer="layer1"
     showgrid="false"
     inkscape:window-width="1436"
     inkscape:window-height="856"
     inkscape:window-x="0"
     inkscape:window-y="0"
     inkscape:window-maximized="1" />
  <metadata
     id="metadata7">
    <rdf:RDF>
      <cc:Work
         rdf:about="">
        <dc:format>image/svg+xml</dc:format>
        <dc:type
           rdf:resource="http://purl.org/dc/dcmitype/StillImage" />
        <dc:title></dc:title>
      </cc:Work>
    </rdf:RDF>
  </metadata>
  <g
     inkscape:label="Layer 1"
     inkscape:groupmode="layer"
     id="layer1"
     transform="translate(0,-792.36218)">
    <path
       style="fill:none;stroke:#000000;stroke-width:0.43434355px;stroke-linecap:butt;stroke-linejoin:miter;stroke-opacity:1"
       d="m 80.366617,858.41648 c -1.24098,163.80962 -1.24098,162.56862 -1.24098,162.56862 l 93.073613,32.2655 43.43436,-40.9524 -1.24098,-161.32761 -19.85571,-27.30159 0,-21.09669 -85.62773,1.24098 -1.24098,18.61473 -8.686873,8.68687 -29.78356,-34.74749 -8.68687,0 -37.22944,24.81963 6.2049,8.68687 33.50651,-23.57865 29.78356,33.50651 z"
       id="path2991"
       inkscape:connector-curvature="0" />
    <path
       style="fill:#ff7f2a;stroke:none"
       d="m 125.98496,1036.1497 -45.714275,-15.957 0.37661,-80.24429 0.37661,-80.24425 6.23062,-9.55855 c 3.42684,-5.25722 6.03728,-10.12562 5.80099,-10.81868 -0.68335,-2.00429 -28.66726,-33.57465 -29.76051,-33.57465 -0.54262,0 -8.22918,5.09061 -17.08124,11.31248 -8.85206,6.22185 -16.2536,11.10542 -16.44786,10.85239 -0.19427,-0.25304 -1.26678,-1.81994 -2.38338,-3.48198 l -2.03015,-3.02188 18.19275,-12.16989 c 13.07238,-8.74468 19.23596,-12.16054 21.89931,-12.13664 3.22734,0.0289 5.60216,2.27371 18.36848,17.36227 8.06406,9.53095 15.0438,17.32899 15.51053,17.32899 0.46673,0 2.754855,-1.97434 5.084735,-4.3874 3.9242,-4.06433 4.27042,-5.06894 4.70173,-13.643 l 0.4656,-9.25562 13.87378,0 c 7.63058,0 26.47329,-0.36808 41.87268,-0.81797 l 27.99889,-0.81797 0,10.56041 0,10.56042 9.79761,13.57967 9.79762,13.57967 0.39544,80.383 0.39543,80.38307 -21.00386,20.0921 -21.00385,20.0923 -45.71429,-15.957 0,0 z"
       id="path2993"
       inkscape:connector-curvature="0" />
  </g>
</svg>
